<svg xmlns="http://www.w3.org/2000/svg" width="2048" height="474" viewBox="0 0 2048 474">
  <defs>
    <linearGradient id="panelGrad" x1="0" x2="0" y1="0" y2="1">
      <stop offset="0%" stop-color="#6770b8"/>
      <stop offset="100%" stop-color="#5d64a6"/>
    </linearGradient>
    <linearGradient id="metal" x1="0" x2="0" y1="0" y2="1">
      <stop offset="0%" stop-color="#c7ccd5"/>
      <stop offset="100%" stop-color="#80858f"/>
    </linearGradient>
    <linearGradient id="portGrad" x1="0" x2="0" y1="0" y2="1">
      <stop offset="0%" stop-color="#0e1116"/>
      <stop offset="100%" stop-color="#000000"/>
    </linearGradient>
    <pattern id="vents" width="24" height="18" patternUnits="userSpaceOnUse">
      <circle cx="6" cy="6" r="3.5" fill="#1b1d22"/>
      <circle cx="18" cy="6" r="3.5" fill="#1b1d22"/>
      <circle cx="12" cy="15" r="3.5" fill="#1b1d22"/>
    </pattern>
    <filter id="shadow" x="-10%" y="-20%" width="120%" height="160%">
      <feDropShadow dx="0" dy="3" stdDeviation="4" flood-color="#000000" flood-opacity="0.35"/>
    </filter>
    <style>
      .tiny { font: 700 9px Arial, sans-serif; fill: #cde04b; }
      .tiny2 { font: 700 8px Arial, sans-serif; fill: #a8cf42; }
      .brand { font: 700 24px Arial, sans-serif; fill: white; }
      .sub { font: 700 13px Arial, sans-serif; fill: white; opacity: 0.95; }
      .model { font: 700 17px Arial, sans-serif; fill: #b7e233; }
    </style>
  </defs>
  <rect width="2048" height="474" fill="none"/>
  <g filter="url(#shadow)">
    <rect x="7" y="86" width="2034" height="7" rx="2" fill="url(#metal)"/>
    <rect x="7" y="94" width="2034" height="6" rx="2" fill="#7b808a"/>
    <rect x="11" y="92" width="2026" height="194" rx="3" fill="url(#panelGrad)" stroke="#c8ccd1" stroke-width="2"/>
    <rect x="11" y="92" width="172" height="194" fill="url(#panelGrad)" stroke="#c8ccd1" stroke-width="2"/>
    <path d="M24 116 h30 v8 h-22 v15 h22 v8 h-30z" fill="#e8eaee"/>
    <text x="63" y="138" class="brand">Extreme</text>
    <text x="65" y="157" class="sub">networks</text>
    <text x="58" y="184" class="model">7720-32C</text>

    <rect x="195" y="106" width="1495" height="36" fill="url(#vents)"/>
    <rect x="195" y="233" width="1495" height="21" fill="#23262c"/>
    <path d="M197 247 h1488" stroke="#8890c7" stroke-width="2" opacity="0.6"/>

    <g transform="translate(185,151)">
      <rect x="0" y="0" width="365" height="72" rx="2" fill="none" stroke="#d8dbe7" stroke-width="2"/>
      <line x1="0" y1="36" x2="365" y2="36" stroke="#d8dbe7" stroke-width="2"/>
      <g fill="url(#portGrad)" stroke="#737aa9" stroke-width="2">
        <rect x="5" y="4" width="84" height="28"/><rect x="95" y="4" width="84" height="28"/><rect x="185" y="4" width="84" height="28"/><rect x="275" y="4" width="84" height="28"/>
        <rect x="5" y="40" width="84" height="28"/><rect x="95" y="40" width="84" height="28"/><rect x="185" y="40" width="84" height="28"/><rect x="275" y="40" width="84" height="28"/>
      </g>
    </g>
    <g transform="translate(558,151)">
      <rect x="0" y="0" width="365" height="72" rx="2" fill="none" stroke="#d8dbe7" stroke-width="2"/>
      <line x1="0" y1="36" x2="365" y2="36" stroke="#d8dbe7" stroke-width="2"/>
      <g fill="url(#portGrad)" stroke="#737aa9" stroke-width="2">
        <rect x="5" y="4" width="84" height="28"/><rect x="95" y="4" width="84" height="28"/><rect x="185" y="4" width="84" height="28"/><rect x="275" y="4" width="84" height="28"/>
        <rect x="5" y="40" width="84" height="28"/><rect x="95" y="40" width="84" height="28"/><rect x="185" y="40" width="84" height="28"/><rect x="275" y="40" width="84" height="28"/>
      </g>
    </g>
    <g transform="translate(931,151)">
      <rect x="0" y="0" width="365" height="72" rx="2" fill="none" stroke="#d8dbe7" stroke-width="2"/>
      <line x1="0" y1="36" x2="365" y2="36" stroke="#d8dbe7" stroke-width="2"/>
      <g fill="url(#portGrad)" stroke="#737aa9" stroke-width="2">
        <rect x="5" y="4" width="84" height="28"/><rect x="95" y="4" width="84" height="28"/><rect x="185" y="4" width="84" height="28"/><rect x="275" y="4" width="84" height="28"/>
        <rect x="5" y="40" width="84" height="28"/><rect x="95" y="40" width="84" height="28"/><rect x="185" y="40" width="84" height="28"/><rect x="275" y="40" width="84" height="28"/>
      </g>
    </g>
    <g transform="translate(1304,151)">
      <rect x="0" y="0" width="365" height="72" rx="2" fill="none" stroke="#d8dbe7" stroke-width="2"/>
      <line x1="0" y1="36" x2="365" y2="36" stroke="#d8dbe7" stroke-width="2"/>
      <g fill="url(#portGrad)" stroke="#737aa9" stroke-width="2">
        <rect x="5" y="4" width="84" height="28"/><rect x="95" y="4" width="84" height="28"/><rect x="185" y="4" width="84" height="28"/><rect x="275" y="4" width="84" height="28"/>
        <rect x="5" y="40" width="84" height="28"/><rect x="95" y="40" width="84" height="28"/><rect x="185" y="40" width="84" height="28"/><rect x="275" y="40" width="84" height="28"/>
      </g>
    </g>

    <g fill="#1f2328">
      <rect x="64" y="210" width="53" height="7" rx="3"/><rect x="64" y="220" width="53" height="7" rx="3"/><rect x="64" y="230" width="53" height="7" rx="3"/>
      <rect x="252" y="210" width="53" height="7" rx="3"/><rect x="252" y="220" width="53" height="7" rx="3"/><rect x="252" y="230" width="53" height="7" rx="3"/>
      <rect x="439" y="210" width="53" height="7" rx="3"/><rect x="439" y="220" width="53" height="7" rx="3"/><rect x="439" y="230" width="53" height="7" rx="3"/>
    </g>

    <g transform="translate(1688,108)">
      <text x="86" y="12" class="tiny">PSU1</text>
      <text x="132" y="12" class="tiny">FAN</text>
      <text x="180" y="12" class="tiny">PSU2</text>
      <text x="227" y="12" class="tiny">SYS</text>
      <text x="266" y="12" class="tiny">PWR</text>
      <text x="305" y="12" class="tiny">SECURE</text>

      <rect x="0" y="26" width="76" height="96" fill="#c9ccd5" stroke="#83899a"/>
      <rect x="11" y="36" width="45" height="38" rx="2" fill="#17191d" stroke="#515566"/>
      <rect x="17" y="80" width="35" height="16" rx="1" fill="#1a1c21" stroke="#7b80a2"/>
      <text x="-10" y="65" transform="rotate(90 -10,65)" class="tiny">CONSOLE</text>
      <text x="26" y="139" class="tiny">USB</text>

      <rect x="109" y="39" width="47" height="58" rx="1" fill="#1a1c21" stroke="#bcc1d1"/>
      <rect x="113" y="43" width="39" height="34" rx="2" fill="#090b0e" stroke="#4c5060"/>
      <rect x="119" y="50" width="10" height="7" fill="#495268"/><rect x="136" y="50" width="10" height="7" fill="#495268"/>
      <text x="114" y="139" class="tiny">MGMT2</text>

      <rect x="188" y="39" width="47" height="58" rx="1" fill="#1a1c21" stroke="#bcc1d1"/>
      <rect x="192" y="43" width="39" height="34" rx="2" fill="#090b0e" stroke="#4c5060"/>
      <rect x="198" y="50" width="10" height="7" fill="#495268"/><rect x="215" y="50" width="10" height="7" fill="#495268"/>
      <text x="193" y="139" class="tiny">MGMT1</text>

      <rect x="60" y="136" width="137" height="10" rx="2" fill="#2628b9"/>
      <rect x="75" y="136.7" width="108" height="5.5" rx="1" fill="#aeb4e6"/>
    </g>
  </g>
</svg>
